<svg width="31" height="31" viewBox="0 0 31 31" fill="none" xmlns="http://www.w3.org/2000/svg">
<circle cx="15.5" cy="15.5" r="15.5" fill="#01211C"/>
<circle cx="15.5" cy="15.5" r="15" stroke="#D4BA7F" stroke-opacity="0.7"/>
<path d="M24.4767 12.8229C24.0229 12.3386 23.4395 12.048 22.7913 11.9512C22.7589 11.8866 22.7589 11.822 22.7265 11.7897C22.3375 10.8534 21.7541 10.0139 21.0411 9.30363C20.328 8.59331 19.4853 8.01214 18.5454 7.62469C17.573 7.20495 16.5359 7.01123 15.4663 7.01123C14.3967 7.01123 13.3595 7.20495 12.3872 7.62469C11.4473 8.01214 10.6046 8.59331 9.89152 9.30363C9.17847 10.0139 8.59507 10.8534 8.20613 11.7897C8.17372 11.8543 8.14131 11.9189 8.14131 11.9835C7.5579 12.0803 7.00691 12.3709 6.58556 12.8229C6.00215 13.3718 5.71045 14.0821 5.71045 14.857C5.71045 15.6319 6.00215 16.3422 6.52074 16.8911C7.03932 17.44 7.75237 17.7629 8.53024 17.7952H8.91918L8.78954 17.44C8.46542 16.6328 8.30336 15.7611 8.30336 14.8893C8.30336 14.0176 8.46542 13.1458 8.75712 12.3386L8.88677 12.048C9.2433 11.2409 9.72947 10.4983 10.3777 9.8848C11.0259 9.23905 11.8038 8.72245 12.6465 8.36729C13.5216 8.01214 14.4615 7.81841 15.4339 7.81841C16.4062 7.81841 17.3462 8.01214 18.2213 8.36729C19.064 8.72245 19.8418 9.23905 20.4901 9.8848C21.1383 10.5305 21.6569 11.3054 22.0134 12.1449C22.3699 13.0167 22.5644 13.953 22.5644 14.9216C22.5644 16.6328 21.9486 18.3118 20.8142 19.6033C19.7122 20.8302 18.2537 21.6696 16.6331 21.9279C16.4386 21.4759 15.9849 21.1208 15.4663 21.1208C14.7532 21.1208 14.2022 21.7019 14.2022 22.38C14.2022 23.0903 14.7857 23.6392 15.4663 23.6392C16.0821 23.6392 16.5683 23.2194 16.6979 22.6383C18.513 22.3477 20.1659 21.4436 21.3976 20.0553C21.981 19.3773 22.4672 18.6024 22.7913 17.7629C23.4395 17.666 24.0229 17.3754 24.4767 16.8911C24.9953 16.3422 25.287 15.6319 25.287 14.857C25.3194 14.0821 25.0277 13.3718 24.4767 12.8229Z" fill="#D4BA7F"/>
<path d="M15.4343 10.4817C16.6084 10.4818 17.7383 10.9203 18.5427 11.7502C19.3642 12.5978 19.8278 13.7015 19.8279 14.8567C19.8279 16.0193 19.3921 17.1178 18.5496 17.9573C17.7374 18.7664 16.6324 19.2327 15.4011 19.2327C14.8232 19.2326 14.2726 19.1181 13.7146 18.884L13.533 18.8079L13.3474 18.8762L10.1912 20.0452L11.365 16.9045L11.4294 16.7307L11.4294 16.7307L11.365 16.5559C11.1548 15.9875 11.0398 15.4327 11.0398 14.8567C11.0399 13.6888 11.4793 12.5642 12.3123 11.7629C13.1632 10.9445 14.2728 10.4817 15.4343 10.4817Z" stroke="#D4BA7F"/>
</svg>
